<svg width="24" height="25" viewBox="0 0 24 25" fill="none" xmlns="http://www.w3.org/2000/svg">
<path d="M20.987 11.521C20.7444 8.27411 16.5253 5.92916 11.5774 6.3305C6.62954 6.73185 2.78561 10.3287 3.00929 13.5764C3.00929 13.5764 4.84287 7.96566 11.0281 7.47954C14.9821 7.17108 18.3615 9.0272 18.5825 11.6545C18.7629 13.8416 16.638 15.8032 13.6346 16.6465C13.0601 16.8016 13.1927 16.5807 13.2369 16.3814C13.2811 16.182 13.126 16.1171 12.9943 16.1171C12.9943 16.1171 11.9337 16.2497 11.2266 16.2497C10.7159 16.2488 10.2063 16.2045 9.70324 16.1171C9.63583 16.1198 9.5701 16.0957 9.52041 16.05C9.47072 16.0044 9.44113 15.941 9.43808 15.8736C9.43721 15.8664 9.43721 15.8591 9.43808 15.8519V15.8077L9.72489 14.1067V14.0626H11.9499C12.1105 14.0581 12.2629 13.9907 12.3744 13.875C12.4859 13.7593 12.5475 13.6045 12.546 13.4438C12.5431 13.2845 12.48 13.1322 12.3694 13.0174C12.2589 12.9027 12.109 12.834 11.9499 12.8251H9.89895V12.8053L10.2083 11.171C10.2313 11.0913 10.2686 11.0165 10.3183 10.9501C10.3409 10.9284 10.3625 10.9284 10.3851 10.9059C10.4067 10.9059 10.4067 10.9059 10.4067 10.8842C10.6719 10.7517 11.3564 10.6633 12.1736 10.6633C12.7316 10.6455 13.2893 10.7062 13.8304 10.8436C13.9502 10.8289 14.0621 10.7759 14.1495 10.6926C14.2369 10.6093 14.2952 10.5 14.3156 10.381L14.4698 9.56384C14.4821 9.46824 14.4629 9.37125 14.4153 9.28747C14.3676 9.2037 14.294 9.13768 14.2056 9.09936C13.7636 8.92349 12.7688 8.79001 11.599 8.79001C10.1849 8.79001 9.01328 8.98933 8.79321 9.23194C8.69962 9.3208 8.63648 9.43696 8.61283 9.56384L8.52264 10.4252L8.01487 12.9649C7.61713 15.1295 7.15355 17.4276 7.41871 17.5376C9.04445 18.0637 10.758 18.2639 12.4613 18.1265C17.4308 17.7279 21.2522 14.7687 20.987 11.521Z" fill="black"/>
</svg>
